<svg xmlns="http://www.w3.org/2000/svg" width="24" height="24" viewBox="0 0 24 24" fill="none" stroke="currentColor" stroke-width="2" stroke-linecap="round" stroke-linejoin="round"><path d="M9.5 4A2.5 2.5 0 0 1 12 6.5v11A2.5 2.5 0 0 1 9.5 20a2.5 2.5 0 0 1-2.45-2 2.5 2.5 0 0 1-2.55-2.5 2.5 2.5 0 0 1 1.02-2.02A3 3 0 0 1 7 8a3 3 0 0 1 2.5-4Z"/><path d="M14.5 4A2.5 2.5 0 0 0 12 6.5v11a2.5 2.5 0 0 0 2.5 2.5 2.5 2.5 0 0 0 2.45-2 2.5 2.5 0 0 0 2.55-2.5 2.5 2.5 0 0 0-1.02-2.02A3 3 0 0 0 17 8a3 3 0 0 0-2.5-4Z"/><path d="M7 8.5a2.5 2.5 0 0 0 2.5 2.5"/><path d="M17 8.5a2.5 2.5 0 0 1-2.5 2.5"/><path d="M7.05 18A2.5 2.5 0 0 1 9.5 15.5"/><path d="M16.95 18a2.5 2.5 0 0 0-2.45-2.5"/></svg>
